
<svg width="25" leight="24" viewBox="0 0 20 20" fill="none" xmlns="http://www.w3.org/2000/svg">
<path d="M16.8679 4.32142C15.6047 3.74183 14.2502 3.31481 12.8339 3.07024C12.8081 3.06552 12.7823 3.07732 12.7691 3.10091C12.5948 3.41075 12.4019 3.81496 12.2668 4.13267C10.7435 3.90462 9.228 3.90462 7.73594 4.13267C7.60079 3.8079 7.40082 3.41075 7.22583 3.10091C7.21254 3.0781 7.18678 3.06631 7.16098 3.07024C5.7455 3.31403 4.39095 3.74105 3.127 4.32142C3.11606 4.32614 3.10668 4.33401 3.10046 4.34423C0.531157 8.1827 -0.172681 11.9268 0.172598 15.6245C0.174161 15.6426 0.184316 15.6599 0.198377 15.6709C1.89353 16.9158 3.53557 17.6716 5.14712 18.1725C5.17291 18.1804 5.20024 18.1709 5.21665 18.1497C5.59786 17.6291 5.93768 17.0802 6.22904 16.503C6.24624 16.4691 6.22982 16.429 6.19468 16.4157C5.65567 16.2112 5.14243 15.9619 4.64873 15.6788C4.60968 15.656 4.60655 15.6001 4.64247 15.5734C4.74637 15.4956 4.85029 15.4146 4.94949 15.3328C4.96744 15.3178 4.99245 15.3147 5.01355 15.3241C8.25697 16.8049 11.7684 16.8049 14.9735 15.3241C14.9946 15.3139 15.0196 15.3171 15.0384 15.332C15.1376 15.4138 15.2415 15.4956 15.3462 15.5734C15.3821 15.6001 15.3797 15.656 15.3407 15.6788C14.847 15.9674 14.3337 16.2112 13.794 16.4149C13.7588 16.4283 13.7432 16.4691 13.7604 16.503C14.058 17.0794 14.3978 17.6283 14.772 18.1489C14.7876 18.1709 14.8157 18.1804 14.8415 18.1725C16.4609 17.6716 18.1029 16.9158 19.7981 15.6709C19.8129 15.6599 19.8223 15.6434 19.8239 15.6253C20.2371 11.3504 19.1317 7.63694 16.8936 4.34501C16.8882 4.33401 16.8788 4.32614 16.8679 4.32142ZM6.71339 13.373C5.7369 13.373 4.9323 12.4765 4.9323 11.3755C4.9323 10.2746 5.7213 9.37807 6.71339 9.37807C7.71328 9.37807 8.51009 10.2824 8.49446 11.3755C8.49446 12.4765 7.70546 13.373 6.71339 13.373ZM13.2987 13.373C12.3222 13.373 11.5176 12.4765 11.5176 11.3755C11.5176 10.2746 12.3066 9.37807 13.2987 9.37807C14.2986 9.37807 15.0954 10.2824 15.0798 11.3755C15.0798 12.4765 14.2986 13.373 13.2987 13.373Z" fill="#ffffff"/>
</svg>
