<svg width="20" height="20" viewBox="0 0 20 20" fill="none" xmlns="http://www.w3.org/2000/svg">
<path d="M9.98951 0C4.46951 0 -0.000488281 4.48 -0.000488281 10C-0.000488281 15.52 4.46951 20 9.98951 20C15.5195 20 19.9995 15.52 19.9995 10C19.9995 4.48 15.5195 0 9.98951 0ZM9.99951 18C5.57951 18 1.99951 14.42 1.99951 10C1.99951 5.58 5.57951 2 9.99951 2C14.4195 2 17.9995 5.58 17.9995 10C17.9995 14.42 14.4195 18 9.99951 18ZM13.4995 9C14.3295 9 14.9995 8.33 14.9995 7.5C14.9995 6.67 14.3295 6 13.4995 6C12.6695 6 11.9995 6.67 11.9995 7.5C11.9995 8.33 12.6695 9 13.4995 9ZM6.49951 9C7.32951 9 7.99951 8.33 7.99951 7.5C7.99951 6.67 7.32951 6 6.49951 6C5.66951 6 4.99951 6.67 4.99951 7.5C4.99951 8.33 5.66951 9 6.49951 9ZM9.99951 15.5C12.3295 15.5 14.3095 14.04 15.1095 12H4.88951C5.68951 14.04 7.66951 15.5 9.99951 15.5Z" fill="currentColor"/>
</svg>
