<svg width="34" height="40" viewBox="0 0 34 40" fill="none" xmlns="http://www.w3.org/2000/svg">
<path fill-rule="evenodd" clip-rule="evenodd" d="M17.7168 33.1739C18.2348 33.1739 18.4238 33.6569 18.4238 34.1819C18.4238 34.6439 18.2978 35.1969 17.7168 35.1969C17.1708 35.1969 16.9888 34.6439 16.9888 34.1469C16.9888 33.6849 17.1708 33.1739 17.7168 33.1739ZM19.5718 31.0039H18.3818V32.7608H18.3678C18.1228 32.4319 17.7798 32.2639 17.3318 32.2639C16.3028 32.2639 15.7988 33.1599 15.7988 34.1049C15.7988 35.1269 16.2818 36.1068 17.4228 36.1068C17.8428 36.1068 18.1928 35.9249 18.4238 35.5819H18.4378V36.0019H19.5718V31.0039ZM12.7095 34.1891C12.7095 33.7271 12.8775 33.1741 13.4305 33.1741C13.9835 33.1741 14.1585 33.7271 14.1585 34.1891C14.1585 34.6511 13.9835 35.1971 13.4305 35.1971C12.8775 35.1971 12.7095 34.6511 12.7095 34.1891ZM11.5195 34.1891C11.5195 35.2811 12.3035 36.1071 13.4305 36.1071C14.5575 36.1071 15.3485 35.2811 15.3485 34.1891C15.3485 33.0971 14.5575 32.2641 13.4305 32.2641C12.3035 32.2641 11.5195 33.0971 11.5195 34.1891ZM21.839 32.369H22.574V33.139H21.839V34.791C21.839 35.078 22.007 35.141 22.266 35.141C22.3142 35.141 22.364 35.1376 22.4147 35.1342C22.4672 35.1306 22.5206 35.127 22.574 35.127V36.002C22.481 36.005 22.388 36.0118 22.295 36.0187C22.171 36.0278 22.047 36.037 21.923 36.037C20.908 36.037 20.649 35.743 20.649 34.756V33.139H20.047V32.369H20.649V31.27H21.839V32.369Z" fill="white"/>
<path d="M0 28H34V37C34 38.6569 32.6569 40 31 40H3C1.34315 40 0 38.6569 0 37V28Z" fill="#D65537"/>
<path d="M0 3C0 1.34315 1.34315 0 3 0H23L34 11V28H0V3Z" fill="#F5F5F5"/>
<path d="M34 11L26 11C24.3431 11 23 9.65685 23 8V0L34 11Z" fill="#DBDBDB"/>
<path fill-rule="evenodd" clip-rule="evenodd" d="M7 12C7 10.8954 7.89543 10 9 10H19C20.1046 10 21 10.8954 21 12V18C21 19.1046 20.1046 20 19 20H9C7.89543 20 7 19.1046 7 18V12ZM9 12H19V18H9V12ZM25 22C25 23.1046 24.1046 24 23 24H11V22H23V15H25V22Z" fill="#D65537"/>
</svg>
