<svg width="20" height="20" viewBox="0 0 20 20" fill="none" xmlns="http://www.w3.org/2000/svg">
<path fill-rule="evenodd" clip-rule="evenodd" d="M10 0C4.477 0 0 4.477 0 9.99999C0 15.5229 4.47685 19.9998 9.99972 20C11.9745 20.0032 13.9057 19.4188 15.5475 18.3213L15.6856 18.229L14.639 16.5396L14.491 16.6382C13.2258 17.4816 11.6018 18.018 10 18.018C5.59047 18.018 1.98198 14.4095 1.98198 10.0008C1.98198 5.59047 5.5905 1.98198 10 1.98198C14.4095 1.98198 18.018 5.59048 18.018 9.99999V11.638C18.018 11.9887 17.8387 12.3567 17.5547 12.6407C17.2707 12.9247 16.9027 13.104 16.552 13.104C16.2013 13.104 15.8333 12.9247 15.5493 12.6407C15.2653 12.3567 15.086 11.9887 15.086 11.638L15.086 5.8968H13.0052C10.9533 4.39328 8.10116 4.63664 6.33383 6.47445C4.38682 8.49909 4.44975 11.7187 6.4744 13.6658C8.44977 15.5654 11.5627 15.5517 13.5213 13.6695C14.2231 14.5651 15.4315 15.086 16.552 15.086C18.5576 15.086 20 13.4577 20 11.4742V9.99999C20 4.477 15.523 0 10 0ZM6.89599 9.99999C6.89599 8.2857 8.28571 6.89598 10 6.89598C11.7143 6.89598 13.104 8.2857 13.104 9.99999C13.104 11.7143 11.7143 13.104 10 13.104C8.28571 13.104 6.89599 11.7143 6.89599 9.99999Z" fill="#747881"/>
</svg>
