<svg width="4" height="16" viewBox="0 0 4 16" fill="none" xmlns="http://www.w3.org/2000/svg">
<path d="M2.00049 4C3.10049 4 4.00049 3.1 4.00049 2C4.00049 0.9 3.10049 0 2.00049 0C0.900488 0 0.000488281 0.9 0.000488281 2C0.000488281 3.1 0.900488 4 2.00049 4ZM2.00049 6C0.900488 6 0.000488281 6.9 0.000488281 8C0.000488281 9.1 0.900488 10 2.00049 10C3.10049 10 4.00049 9.1 4.00049 8C4.00049 6.9 3.10049 6 2.00049 6ZM2.00049 12C0.900488 12 0.000488281 12.9 0.000488281 14C0.000488281 15.1 0.900488 16 2.00049 16C3.10049 16 4.00049 15.1 4.00049 14C4.00049 12.9 3.10049 12 2.00049 12Z" fill="#747881"/>
</svg>
